<svg id="Layer_2" data-name="Layer 2" xmlns="http://www.w3.org/2000/svg" viewBox="0 0 319.33 55.25" fill="currentColor">
  <g id="Layer_1-2" data-name="Layer 1">
    <g>
      <path d="M9.36,53.19c-2.91,0-5.19-.77-6.86-2.32-1.67-1.55-2.5-3.96-2.5-7.24V7.31c0-1.08.58-2.06,1.76-2.95,1.17-.89,2.7-1.65,4.58-2.3s4.01-1.15,6.38-1.51c2.37-.36,4.76-.55,7.18-.55,4.28,0,8.19.52,11.72,1.57,3.54,1.05,6.58,2.68,9.14,4.88,2.56,2.21,4.54,5.02,5.95,8.43,1.41,3.42,2.12,7.51,2.12,12.27,0,4.17-.68,7.87-2.04,11.1-1.36,3.23-3.31,5.95-5.85,8.17-2.54,2.22-5.62,3.9-9.22,5.04-3.61,1.14-7.66,1.72-12.15,1.72h-10.21ZM24.79,25.3c0-1.29-.04-2.4-.1-3.33-.07-.93-.19-1.7-.36-2.32-.17-.57-.4-.94-.69-1.13-.29-.19-.62-.28-1-.28s-.67.05-.87.14c-.2.09-.38.18-.51.26.03.48.08.94.15,1.35.07.42.13.89.18,1.41.05.53.09,1.13.13,1.82.03.69.05,1.53.05,2.52v2.62c0,1-.02,1.84-.05,2.52-.04.69-.08,1.29-.13,1.82-.05.52-.11,1-.18,1.41-.07.42-.12.87-.15,1.35.14.08.31.17.51.26.21.09.5.14.87.14s.71-.09,1-.28c.29-.19.52-.57.69-1.13.17-.62.29-1.39.36-2.32.07-.93.1-2.04.1-3.33v-3.51Z"/>
      <path d="M229.33,9.33c.51-2.27,2.09-4.16,4.24-5.06l.04-.02c1.32-.55,2.71-1.01,4.18-1.39,1.47-.38,2.99-.67,4.56-.87,1.57-.2,3.15-.3,4.74-.3,2.1,0,4.18.19,6.24.57,2.06.38,3.93.97,5.63,1.78,1.7.81,3.15,1.85,4.36,3.13,1.21,1.28,2.03,2.81,2.46,4.58l8.75,36.21c.31,1.27-.11,2.61-1.1,3.47s-2.24,1.65-3.66,2.3c-2.23,1.02-5.06,1.53-8.48,1.53-1.51,0-2.92-.13-4.24-.4-1.32-.27-2.48-.67-3.49-1.19-1.01-.53-1.84-1.18-2.5-1.98-.66-.79-1.08-1.73-1.27-2.8l-.89-4.92c.83-.03,1.66-.13,2.48-.3.82-.17,1.56-.39,2.22-.65.66-.26,1.2-.54,1.61-.87.42-.32.63-.65.63-.97,0-.43-.18-2.6-.52-2.87-.48.35-1.05.67-1.7.95s-1.33.52-2.04.71c-.71.19-1.43.33-2.14.42-.71.09-1.38.14-2,.14-1.16,0-2.19-.07-3.09-.22-.9-.15-1.69-.33-2.36-.54-.67-.21-1.25-.45-1.74-.71-.48-.26-.89-.5-1.21-.75-.11.14-.2,2.11-.28,2.28-.08.18-.12.37-.12.58,0,.4.21.77.63,1.11.42.34.98.63,1.68.89.7.26,1.5.46,2.4.63.9.16,1.85.27,2.85.32.16,1.88.34,3.38.54,4.5.2,1.12.4,1.82.59,2.12-.24.46-.72.95-1.43,1.47-.71.52-1.6,1.02-2.66,1.47-1.06.46-2.27.83-3.63,1.13-1.36.3-2.81.44-4.34.44-1.91,0-3.71-.22-5.41-.65-1.7-.43-3.18-1.03-4.44-1.8-1.27-.77-2.27-1.7-3.03-2.78-.75-1.09-1.13-2.31-1.13-3.65,0-.3.01-.6.04-.91.03-.31.08-.63.16-.95l7.87-35.18ZM249.37,26.72c-.38-2.08-.69-3.75-.91-5-.23-1.25-.45-2.19-.68-2.84-.23-.64-.47-1.06-.73-1.25s-.58-.29-.96-.29c-.24,0-1.47.03-1.68.1-.21.07-.4.14-.57.21l1.98,10.52c.14.14.34.24.6.31.26.07.5.1.7.1.31,0,1.61-.04,1.89-.13.28-.09.49-.16.62-.23l-.26-1.51Z"/>
      <path d="M56.34,8.65c.51-2.27,2.09-4.16,4.24-5.06l.04-.02c1.32-.55,2.71-1.01,4.18-1.39,1.47-.38,2.99-.67,4.56-.87,1.57-.2,3.15-.3,4.74-.3,2.1,0,4.18.19,6.24.57,2.06.38,3.93.97,5.63,1.78,1.7.81,3.15,1.85,4.36,3.13,1.21,1.28,2.03,2.81,2.46,4.58l8.75,36.21c.31,1.27-.11,2.61-1.1,3.47s-2.24,1.65-3.66,2.3c-2.23,1.02-5.06,1.53-8.48,1.53-1.51,0-2.92-.13-4.24-.4-1.32-.27-2.48-.67-3.49-1.19-1.01-.53-1.84-1.18-2.5-1.98-.66-.79-1.08-1.73-1.27-2.8l-.89-4.92c.83-.03,1.66-.13,2.48-.3.82-.17,1.56-.39,2.22-.65.66-.26,1.2-.54,1.61-.87.42-.32.63-.65.63-.97,0-.43-.18-2.6-.52-2.87-.48.35-1.05.67-1.7.95s-1.33.52-2.04.71c-.71.19-1.43.33-2.14.42-.71.09-1.38.14-2,.14-1.16,0-2.19-.07-3.09-.22-.9-.15-1.69-.33-2.36-.54-.67-.21-1.25-.45-1.74-.71-.48-.26-.89-.5-1.21-.75-.11.14-.2,2.11-.28,2.28-.08.18-.12.37-.12.58,0,.4.21.77.63,1.11.42.34.98.63,1.68.89.7.26,1.5.46,2.4.63.9.16,1.85.27,2.85.32.16,1.88.34,3.38.54,4.5.2,1.12.4,1.82.59,2.12-.24.46-.72.95-1.43,1.47-.71.52-1.6,1.02-2.66,1.47-1.06.46-2.27.83-3.63,1.13-1.36.3-2.81.44-4.34.44-1.91,0-3.71-.22-5.41-.65-1.7-.43-3.18-1.03-4.44-1.8-1.27-.77-2.27-1.7-3.03-2.78-.75-1.09-1.13-2.31-1.13-3.65,0-.3.01-.6.04-.91.03-.31.08-.63.16-.95l7.87-35.18ZM79.37,26.03c-.38-2.08-.69-3.75-.91-5-.23-1.25-.45-2.19-.68-2.84-.23-.64-.47-1.06-.73-1.25s-.58-.29-.96-.29c-.24,0-.47.03-.68.1-.21.07-.4.14-.57.21l1.98,10.52c.14.14.34.24.6.31.26.07.5.1.7.1.31,0,.61-.04.89-.13.28-.09.49-.16.62-.23l-.26-1.51ZM72.14,26.03c-.38-2.08-.69-3.75-.91-5-.23-1.25-.45-2.19-.68-2.84-.23-.64-.47-1.06-.73-1.25s-.58-.29-.96-.29c-.24,0-.47.03-.68.1-.21.07-.4.14-.57.21l1.98,10.52c.14.14.34.24.6.31.26.07.5.1.7.1.31,0,.61-.04.89-.13.28-.09.49-.16.62-.23l-.26-1.51Z"/>
      <path d="M103.24,6.62c0-.62.5-1.31,1.51-2.08,1.01-.77,2.47-1.49,4.38-2.16,1.91-.67,4.24-1.24,7-1.7,2.76-.46,5.87-.69,9.34-.69,4.28,0,7.92.42,10.94,1.27,3.01.85,5.47,1.98,7.37,3.41,1.9,1.43,3.28,3.07,4.16,4.94.87,1.87,1.31,3.83,1.31,5.87,0,.78-.07,1.57-.2,2.36-.14.79-.34,1.55-.6,2.28-.27.73-.61,1.41-1.03,2.04-.42.63-.89,1.15-1.43,1.55-.75-.38-1.49-.65-2.22-.83-.73-.17-1.36-.26-1.9-.26-.57,0-1.02.11-1.37.32-.35.22-.53.67-.53,1.37,2.1.08,3.92.51,5.45,1.29,1.53.78,2.8,1.78,3.79,3.01.99,1.22,1.73,2.62,2.22,4.2.48,1.57.73,3.21.73,4.9,0,2.91-.6,5.37-1.82,7.39s-2.97,3.65-5.27,4.9c-2.3,1.25-5.13,2.16-8.48,2.72s-7.16.85-11.44.85c-3.07,0-5.72-.05-7.95-.14-2.23-.09-4.16-.25-5.77-.46-2.85-.38-4.93-1.28-6.24-2.72-1.31-1.44-1.96-3.65-1.96-6.64V6.62ZM124.09,20.04c.11.08.3.13.55.14.25.02.41.03.49.03.92,0,1.57-.29,1.96-.86.38-.58.58-1.52.58-2.82v-.35c0-1.34-.16-2.32-.49-2.94-.33-.61-.93-.92-1.81-.92-.19,0-.42.02-.69.06-.27.04-.48.1-.63.17.04.31.06.63.06.98v6.5ZM124.09,41.74c.11.08.3.12.55.14.25.02.41.03.49.03.92,0,1.57-.24,1.96-.72.38-.48.58-1.37.58-2.68v-1.09c0-1.34-.16-2.34-.49-2.99-.33-.65-.93-.98-1.81-.98-.19,0-.42.02-.69.06-.27.04-.48.1-.63.17.04.31.06.63.06.98v7.08Z"/>
      <path d="M174.65,7.75c0-.89.6-1.76,1.8-2.6,1.2-.85,2.8-1.61,4.82-2.3,2.02-.69,4.34-1.24,6.96-1.66,2.62-.42,5.37-.63,8.25-.63,3.98,0,7.57.52,10.76,1.55,3.19,1.04,5.9,2.5,8.13,4.38,2.23,1.88,3.96,4.16,5.17,6.82s1.82,5.61,1.82,8.84c0,3.44-.55,6.47-1.65,9.08-1.1,2.61-2.67,4.79-4.7,6.54-2.03,1.75-4.48,3.06-7.35,3.94-2.87.87-6.05,1.31-9.54,1.31-.89,0-1.8-.06-2.75-.18-.94-.12-1.83-.27-2.66-.44-.83-.18-1.57-.35-2.22-.53-.64-.17-1.12-.33-1.41-.46-.08.08-.15.19-.22.32-.07.14-.1,1.23-.1,1.48,0,.3.13.58.38.85.26.27.71.51,1.35.73.65.22,1.51.41,2.6.59,1.09.18,2.47.32,4.14.42v5.26c-.65.54-1.42,1.02-2.32,1.43-.9.42-1.86.77-2.89,1.07-1.02.3-2.09.52-3.21.67-1.12.15-2.23.22-3.33.22-1.53,0-3.01-.16-4.44-.46-1.43-.31-2.68-.8-3.77-1.47-1.09-.67-1.96-1.54-2.62-2.6-.66-1.06-.99-2.33-.99-3.81V7.75ZM197.22,28.16c.11.07.29.12.54.14.24.02.4.03.48.03.9,0,1.54-.28,1.91-.83.37-.55.56-1.46.56-2.72v-4.22c0-1.3-.16-2.24-.48-2.83-.32-.59-.91-.89-1.77-.89-.19,0-.41.02-.68.06-.26.04-.47.09-.62.17.04.3.06.61.06.94v10.16Z"/>
      <path d="M286.88,53.76c-2.91,0-5.19-.77-6.86-2.32-1.67-1.55-2.5-3.96-2.5-7.24V4.72c1.43-1.21,3.17-2.15,5.25-2.81,2.07-.66,4.2-.99,6.38-.99,1.51,0,2.98.2,4.42.61,1.44.4,2.72,1.02,3.83,1.84,1.12.82,2.01,1.86,2.68,3.13.67,1.27,1.01,2.74,1.01,4.44v21.17c-.67.05-1.39.19-2.16.4-.77.22-1.48.48-2.14.81-.66.32-1.21.68-1.66,1.07-.44.39-.67.79-.67,1.19,0,.3.07,1.44.22,1.62.15.18.33.33.54.46,1.51-1.26,3.23-2.14,5.17-2.62,1.94-.48,4.17-.73,6.7-.73h9.57c.4.7.77,1.43,1.09,2.2.32.77.6,1.55.83,2.34.23.79.41,1.58.55,2.36.13.78.2,1.51.2,2.18,0,.97-.07,1.96-.22,2.97-.15,1.01-.36,1.97-.63,2.89-.27.92-.59,1.76-.97,2.54-.38.78-.81,1.44-1.29,1.98h-29.34Z"/>
    </g>
  </g>
</svg>